<svg width="1200" height="240" viewBox="0 0 1200 240" xmlns="http://www.w3.org/2000/svg">
  <defs>
    <linearGradient id="bg" x1="0" y1="0" x2="1" y2="1">
      <stop offset="0%" stop-color="#04120f"/>
      <stop offset="100%" stop-color="#020807"/>
    </linearGradient>
    <linearGradient id="line" x1="0" y1="0" x2="1" y2="0">
      <stop offset="0%" stop-color="#00ff99"/>
      <stop offset="100%" stop-color="#00d7ff"/>
    </linearGradient>
    <filter id="glow" x="-50%" y="-50%" width="200%" height="200%">
      <feGaussianBlur stdDeviation="2.4" result="blur"/>
      <feMerge>
        <feMergeNode in="blur"/>
        <feMergeNode in="SourceGraphic"/>
      </feMerge>
    </filter>
  </defs>

  <rect width="1200" height="240" rx="16" fill="url(#bg)" stroke="url(#line)" stroke-opacity="0.45"/>
  <text x="38" y="48" fill="#00ff99" font-family="Fira Code, monospace" font-size="28" font-weight="700" filter="url(#glow)">
    GITHUB TROPHIES
  </text>
  <text x="38" y="76" fill="#86ffd5" font-family="Fira Code, monospace" font-size="14">
    Stable mode panel (always visible)
  </text>

  <g transform="translate(34,102)" font-family="Fira Code, monospace">
    <g>
      <rect x="0" y="0" width="260" height="108" rx="12" fill="#071a16" stroke="#00ff99" stroke-opacity="0.35"/>
      <text x="18" y="34" fill="#00ff99" font-size="24">C1</text>
      <text x="64" y="34" fill="#9bffde" font-size="16">Security Builder</text>
      <text x="18" y="62" fill="#7fffd1" font-size="13">Projects and tools for cyber ops</text>
    </g>

    <g transform="translate(286,0)">
      <rect x="0" y="0" width="260" height="108" rx="12" fill="#071a16" stroke="#00ff99" stroke-opacity="0.35"/>
      <text x="18" y="34" fill="#00ff99" font-size="24">C2</text>
      <text x="64" y="34" fill="#9bffde" font-size="16">Consistency</text>
      <text x="18" y="62" fill="#7fffd1" font-size="13">Continuous commits and improvements</text>
    </g>

    <g transform="translate(572,0)">
      <rect x="0" y="0" width="260" height="108" rx="12" fill="#071a16" stroke="#00ff99" stroke-opacity="0.35"/>
      <text x="18" y="34" fill="#00ff99" font-size="24">C3</text>
      <text x="64" y="34" fill="#9bffde" font-size="16">Open Source Ops</text>
      <text x="18" y="62" fill="#7fffd1" font-size="13">Security-focused public contributions</text>
    </g>

    <g transform="translate(858,0)">
      <rect x="0" y="0" width="308" height="108" rx="12" fill="#071a16" stroke="#00ff99" stroke-opacity="0.35"/>
      <text x="18" y="34" fill="#00ff99" font-size="24">C4</text>
      <text x="64" y="34" fill="#9bffde" font-size="16">Elite Learning Track</text>
      <text x="18" y="62" fill="#7fffd1" font-size="13">TryHackMe rank + certifications stack</text>
    </g>
  </g>
</svg>
